<svg width="16" height="16" viewBox="0 0 16 16" fill="none" xmlns="http://www.w3.org/2000/svg">
<path fill-rule="evenodd" clip-rule="evenodd" d="M13.3335 5.33337V3.33337H12.0002V4.00004H10.6668V3.33337H5.3335V4.00004H4.00016V3.33337H2.66683V5.33337H13.3335ZM13.3335 6.66671H2.66683V13.3334H13.3335V6.66671ZM12.0002 2.00004H13.3335C14.0699 2.00004 14.6668 2.59699 14.6668 3.33337V13.3334C14.6668 14.0698 14.0699 14.6667 13.3335 14.6667H2.66683C1.93045 14.6667 1.3335 14.0698 1.3335 13.3334V3.33337C1.3335 2.59699 1.93045 2.00004 2.66683 2.00004H4.00016V1.33337H5.3335V2.00004H10.6668V1.33337H12.0002V2.00004Z" fill="white"/>
</svg>
