<svg width="40" height="23" viewBox="0 0 40 23" fill="none" xmlns="http://www.w3.org/2000/svg">
<g clip-path="url(#clip0_956_9086)">
<path fill-rule="evenodd" clip-rule="evenodd" d="M29.375 5.25C28.34 5.25 27.5 6.09 27.5 7.125C27.5 8.16 28.34 9 29.375 9C30.41 9 31.25 8.16 31.25 7.125C31.25 6.09 30.41 5.25 29.375 5.25ZM33.125 10.25C32.09 10.25 31.25 11.09 31.25 12.125C31.25 13.16 32.09 14 33.125 14C34.16 14 35 13.16 35 12.125C35 11.09 34.16 10.25 33.125 10.25ZM37.5 15.25C37.5 18.0112 35.2612 20.25 32.5 20.25H7.5C4.73875 20.25 2.5 18.0112 2.5 15.25V7.75C2.5 4.98875 4.73875 2.75 7.5 2.75H32.5C35.2612 2.75 37.5 4.98875 37.5 7.75V15.25ZM32.5 0.25H7.5C3.35875 0.25 0 3.60875 0 7.75V15.25C0 19.3913 3.35875 22.75 7.5 22.75H32.5C36.6413 22.75 40 19.3913 40 15.25V7.75C40 3.60875 36.6413 0.25 32.5 0.25ZM28.125 14C27.09 14 26.25 14.84 26.25 15.875C26.25 16.91 27.09 17.75 28.125 17.75C29.16 17.75 30 16.91 30 15.875C30 14.84 29.16 14 28.125 14ZM16.25 10.25H12.5V6.5C12.5 5.81 11.9412 5.25 11.25 5.25C10.5588 5.25 10 5.81 10 6.5V10.25H6.25C5.55875 10.25 5 10.81 5 11.5C5 12.1912 5.55875 12.75 6.25 12.75H10V16.5C10 17.1912 10.5588 17.75 11.25 17.75C11.9412 17.75 12.5 17.1912 12.5 16.5V12.75H16.25C16.9412 12.75 17.5 12.1912 17.5 11.5C17.5 10.81 16.9412 10.25 16.25 10.25ZM24.375 9C23.34 9 22.5 9.84 22.5 10.875C22.5 11.91 23.34 12.75 24.375 12.75C25.41 12.75 26.25 11.91 26.25 10.875C26.25 9.84 25.41 9 24.375 9Z" fill="white"/>
</g>
<defs>
<clipPath id="clip0_956_9086">
<rect width="40" height="22.5" fill="white" transform="translate(0 0.25)"/>
</clipPath>
</defs>
</svg>
