<svg width="13" height="12" viewBox="0 0 13 12" fill="none" xmlns="http://www.w3.org/2000/svg">
<path d="M1.7002 1.80001C1.7002 1.46864 1.96882 1.20001 2.3002 1.20001H3.59192C3.88522 1.20001 4.13554 1.41206 4.18376 1.70137L4.62734 4.3629C4.67065 4.62272 4.53943 4.8804 4.30383 4.99819L3.37495 5.46263C4.04473 7.127 5.3732 8.45548 7.03757 9.12526L7.50202 8.19637C7.61981 7.96078 7.87749 7.82956 8.13731 7.87287L10.7988 8.31645C11.0881 8.36467 11.3002 8.61498 11.3002 8.90829V10.2C11.3002 10.5314 11.0316 10.8 10.7002 10.8H9.5002C5.19237 10.8 1.7002 7.30783 1.7002 3.00001V1.80001Z" fill="#43C989"/>
</svg>
