<svg width="40" height="40" viewBox="0 0 40 40" fill="none" xmlns="http://www.w3.org/2000/svg">
<path fill-rule="evenodd" clip-rule="evenodd" d="M20 22.7457L16.7836 27.5231C17.7511 28.6803 18.3333 30.1705 18.3333 31.7967C18.3333 35.4786 15.3486 38.4634 11.6667 38.4634C7.98477 38.4634 5 35.4786 5 31.7967C5 28.1148 7.98477 25.13 11.6667 25.13C12.5158 25.13 13.3278 25.2888 14.0747 25.5782L17.9908 19.7614L7.55746 4.26416L10.3225 2.40259L20 16.777L29.6775 2.40259L32.4425 4.26416L22.0092 19.7614L25.9253 25.5782C26.6722 25.2888 27.4842 25.13 28.3333 25.13C32.0152 25.13 35 28.1148 35 31.7967C35 35.4786 32.0152 38.4634 28.3333 38.4634C24.6514 38.4634 21.6667 35.4786 21.6667 31.7967C21.6667 30.1705 22.2489 28.6803 23.2164 27.5231L20 22.7457ZM11.6667 35.13C13.5076 35.13 15 33.6377 15 31.7967C15 29.9558 13.5076 28.4634 11.6667 28.4634C9.82572 28.4634 8.33333 29.9558 8.33333 31.7967C8.33333 33.6377 9.82572 35.13 11.6667 35.13ZM28.3333 35.13C30.1743 35.13 31.6667 33.6377 31.6667 31.7967C31.6667 29.9558 30.1743 28.4634 28.3333 28.4634C26.4924 28.4634 25 29.9558 25 31.7967C25 33.6377 26.4924 35.13 28.3333 35.13Z" fill="white"/>
</svg>
