<svg width="103" height="23" viewBox="0 0 103 23" fill="none" xmlns="http://www.w3.org/2000/svg">
<path fill-rule="evenodd" clip-rule="evenodd" d="M6.79631 0.0233154C3.0989 0.0233154 0.101562 3.02066 0.101562 6.71806V15.6444C0.101562 19.3418 3.0989 22.3391 6.79631 22.3391H15.7226C19.4201 22.3391 22.4174 19.3418 22.4174 15.6444V6.71806C22.4174 3.02066 19.4201 0.0233154 15.7226 0.0233154H6.79631ZM8.30181 15.7697C7.16462 17.2572 6.01915 18.7555 6.09233 18.8402C6.23399 19.005 14.6447 13.1719 14.6884 12.6096C14.7152 12.2738 13.2672 11.2755 12.0849 10.4605C11.2887 9.91156 10.613 9.44573 10.5894 9.32125C10.8022 9.32125 11.0279 9.35451 11.2704 9.39024C11.552 9.43173 11.8563 9.47655 12.1893 9.47655C13.3243 8.08214 16.444 3.78926 16.3286 3.61773C16.1983 3.42508 7.71083 9.3005 7.7316 9.84811C7.74299 10.1616 9.12754 11.1261 10.3136 11.9523C11.1983 12.5686 11.9726 13.108 11.9842 13.2429C11.9898 13.3082 11.6216 13.2318 11.2308 13.1507C10.8151 13.0644 10.3738 12.9728 10.3297 13.0409C10.0042 13.5429 9.15535 14.6532 8.30181 15.7697Z" fill="#0F0F14"/>
<path d="M33.0331 18.4552C34.3601 18.4552 35.4449 18.1355 36.2875 17.506C37.1302 16.8764 37.5467 16.0725 37.5467 15.0942C37.5467 14.6293 37.4692 14.2225 37.3142 13.8738C37.1592 13.5252 36.9268 13.2443 36.6168 13.0215C36.3069 12.7987 35.997 12.6244 35.687 12.4888C35.3771 12.3532 34.9896 12.2176 34.5247 12.0917L32.1905 11.4427C31.8031 11.3071 31.6093 11.1037 31.6093 10.8422C31.6093 10.6582 31.7159 10.5129 31.929 10.3967C32.1421 10.2805 32.3939 10.2223 32.6845 10.2223C33.4496 10.2223 34.0598 10.542 34.5151 11.1715L37.2948 10.3773C36.9655 9.58308 36.3941 8.95351 35.5708 8.4886C34.7475 8.02369 33.7983 7.79123 32.7135 7.79123C31.5609 7.79123 30.573 8.09149 29.7497 8.692C28.9264 9.29251 28.5099 10.0383 28.5099 10.9197C28.5099 12.2854 29.3623 13.2249 31.0669 13.7382L33.4884 14.455C34.1179 14.639 34.4376 14.9005 34.4376 15.2298C34.4376 15.4332 34.3213 15.6076 34.0889 15.7529C33.8564 15.8982 33.5465 15.9756 33.1687 15.9756C32.5973 15.9756 32.1033 15.84 31.6965 15.5688C31.2897 15.2976 30.9991 14.9393 30.8248 14.5034L27.9966 15.3364C28.2581 16.1984 28.8586 16.9345 29.7884 17.5544C30.7183 18.1743 31.8031 18.4842 33.0525 18.4842L33.0331 18.4552Z" fill="#0F0F14"/>
<path d="M38.709 18.1743H41.8859V3.69418H38.709V18.1743Z" fill="#0F0F14"/>
<path d="M48.4818 18.4552C50.0509 18.4552 51.3488 17.9418 52.3755 16.9248C53.4021 15.9078 53.9155 14.639 53.9155 13.1184C53.9155 11.5977 53.4021 10.3289 52.3755 9.31188C51.3488 8.29489 50.0509 7.79123 48.4818 7.79123C46.9127 7.79123 45.6149 8.30457 44.5882 9.32157C43.5615 10.3386 43.0481 11.6074 43.0481 13.128C43.0481 14.6487 43.5615 15.9175 44.5882 16.9345C45.6149 17.9515 46.9127 18.4649 48.4818 18.4649V18.4552ZM48.4818 15.6076C47.7651 15.6076 47.1936 15.3751 46.7674 14.9102C46.3413 14.4453 46.1282 13.8545 46.1282 13.128C46.1282 12.4016 46.3413 11.8108 46.7674 11.3459C47.1936 10.881 47.7651 10.6485 48.4818 10.6485C49.1986 10.6485 49.77 10.881 50.1962 11.3459C50.6224 11.8108 50.8354 12.4016 50.8354 13.128C50.8354 13.8545 50.6224 14.455 50.1962 14.9199C49.77 15.3848 49.1986 15.6173 48.4818 15.6173V15.6076Z" fill="#0F0F14"/>
<path d="M60.6567 15.317C60.3274 15.4914 59.969 15.5785 59.5816 15.5785C58.8842 15.5785 58.5356 15.2298 58.5356 14.5228V10.8325H61.2572V8.06243H58.5356V4.88552H55.3587V8.06243H53.7896V10.8325H55.3587V14.5228C55.3587 15.7141 55.6589 16.6439 56.2594 17.3219C56.8599 17.9999 57.751 18.3389 58.9424 18.3389C59.7656 18.3389 60.5889 18.1743 61.4219 17.845L60.6567 15.317Z" fill="#0F0F14"/>
<path d="M66.4875 18.4552C67.8145 18.4552 68.8993 18.1355 69.7419 17.506C70.5846 16.8764 71.001 16.0725 71.001 15.0942C71.001 14.6293 70.9236 14.2225 70.7686 13.8738C70.6136 13.5252 70.3812 13.2443 70.0712 13.0215C69.7613 12.7987 69.4513 12.6244 69.1414 12.4888C68.8314 12.3532 68.444 12.2176 67.9791 12.0917L65.6449 11.4427C65.2574 11.3071 65.0637 11.1037 65.0637 10.8422C65.0637 10.6582 65.1703 10.5129 65.3833 10.3967C65.5964 10.2805 65.8483 10.2223 66.1388 10.2223C66.904 10.2223 67.5142 10.542 67.9694 11.1715L70.7492 10.3773C70.4199 9.58308 69.8484 8.95351 69.0252 8.4886C68.2019 8.02369 67.2527 7.79123 66.1679 7.79123C65.0153 7.79123 64.0273 8.09149 63.2041 8.692C62.3808 9.29251 61.9643 10.0383 61.9643 10.9197C61.9643 12.2854 62.8166 13.2249 64.5213 13.7382L66.9427 14.455C67.5723 14.639 67.8919 14.9005 67.8919 15.2298C67.8919 15.4332 67.7757 15.6076 67.5433 15.7529C67.3108 15.8982 67.0009 15.9756 66.6231 15.9756C66.0517 15.9756 65.5577 15.84 65.1509 15.5688C64.7441 15.2976 64.4535 14.9393 64.2792 14.5034L61.451 15.3364C61.7125 16.1984 62.313 16.9345 63.2428 17.5544C64.1726 18.1743 65.2574 18.4842 66.5069 18.4842L66.4875 18.4552Z" fill="#0F0F14"/>
<path d="M78.2556 7.78154C77.0546 7.78154 76.086 8.18834 75.3402 8.99226V8.06243H72.1633V22.3391H75.3402V17.2445C76.1054 18.0484 77.074 18.4552 78.2459 18.4552C79.6213 18.4552 80.7836 17.9418 81.7328 16.9248C82.682 15.9078 83.1566 14.639 83.1566 13.1184C83.1566 11.5977 82.682 10.3289 81.7328 9.31188C80.7836 8.29489 79.6213 7.79123 78.2459 7.79123L78.2556 7.78154ZM77.6648 15.6463C76.9577 15.6463 76.3766 15.4139 75.9214 14.949C75.4661 14.484 75.2337 13.8738 75.2337 13.1184C75.2337 12.3726 75.4565 11.772 75.9117 11.3071C76.3669 10.8422 76.9481 10.6098 77.6551 10.6098C78.3428 10.6098 78.9046 10.8422 79.3501 11.3071C79.7957 11.772 80.0184 12.3726 80.0184 13.1184C80.0184 13.8642 79.7957 14.4744 79.3501 14.949C78.9046 15.4236 78.3428 15.656 77.6551 15.656L77.6648 15.6463Z" fill="#0F0F14"/>
<path d="M89.1617 18.4552C90.7308 18.4552 92.0287 17.9418 93.0554 16.9248C94.082 15.9078 94.5954 14.639 94.5954 13.1184C94.5954 11.5977 94.082 10.3289 93.0554 9.31188C92.0287 8.29489 90.7308 7.79123 89.1617 7.79123C87.5926 7.79123 86.2947 8.30457 85.2681 9.32157C84.2414 10.3386 83.728 11.6074 83.728 13.128C83.728 14.6487 84.2414 15.9175 85.2681 16.9345C86.2947 17.9515 87.5926 18.4649 89.1617 18.4649V18.4552ZM89.1617 15.6076C88.445 15.6076 87.8735 15.3751 87.4473 14.9102C87.0212 14.4453 86.8081 13.8545 86.8081 13.128C86.8081 12.4016 87.0212 11.8108 87.4473 11.3459C87.8735 10.881 88.445 10.6485 89.1617 10.6485C89.8785 10.6485 90.4499 10.881 90.8761 11.3459C91.3022 11.8108 91.5153 12.4016 91.5153 13.128C91.5153 13.8545 91.3022 14.455 90.8761 14.9199C90.4499 15.3848 89.8785 15.6173 89.1617 15.6173V15.6076Z" fill="#0F0F14"/>
<path d="M101.337 15.317C101.007 15.4914 100.649 15.5785 100.262 15.5785C99.5641 15.5785 99.2155 15.2298 99.2155 14.5228V10.8325H101.937V8.06243H99.2155V4.88552H96.0386V8.06243H94.4695V10.8325H96.0386V14.5228C96.0386 15.7141 96.3388 16.6439 96.9393 17.3219C97.5398 17.9999 98.4309 18.3389 99.6223 18.3389C100.446 18.3389 101.269 18.1743 102.102 17.845L101.337 15.317Z" fill="#0F0F14"/>
</svg>
