<svg width="40" height="40" viewBox="0 0 40 40" fill="none" xmlns="http://www.w3.org/2000/svg">
<path d="M14.25 20C12.4667 18.8166 10.5 17.8833 8.3667 17.3167C10.5 17.8833 12.4667 18.8166 14.25 20ZM31.6334 17.3167C29.4834 17.8833 27.4834 18.8333 25.6834 20.05C27.4834 18.8333 29.4834 17.8833 31.6334 17.3167Z" fill="white"/>
<path d="M25.8166 16.05C25.5166 11.4 23.6333 6.86671 20.0999 3.33337C16.5333 6.90004 14.5666 11.4334 14.1833 16.05C16.3166 17.1834 18.2833 18.65 19.9999 20.4334C21.7166 18.6667 23.6833 17.2 25.8166 16.05ZM14.9833 20.4667C14.7499 20.3 14.4833 20.15 14.2333 19.9834C14.4833 20.1667 14.7499 20.3 14.9833 20.4667ZM25.6833 20.05C25.4666 20.2 25.2333 20.3167 25.0166 20.4834C25.2333 20.3167 25.4666 20.2 25.6833 20.05ZM19.9999 25.75C16.4166 20.2834 10.2999 16.6667 3.33325 16.6667C3.33325 25.5334 8.93325 33.0334 16.7166 35.8167C17.7666 36.2 18.8666 36.4834 19.9999 36.6667C21.1333 36.4667 22.2166 36.1834 23.2833 35.8167C31.0666 33.0334 36.6666 25.5334 36.6666 16.6667C29.6999 16.6667 23.5833 20.2834 19.9999 25.75Z" fill="white"/>
</svg>
